<?xml version="1.0" encoding="utf-8"?>
<!-- Generator: Adobe Illustrator 18.0.0, SVG Export Plug-In . SVG Version: 6.00 Build 0)  -->
<!DOCTYPE svg PUBLIC "-//W3C//DTD SVG 1.1//EN" "http://www.w3.org/Graphics/SVG/1.1/DTD/svg11.dtd">
<svg version="1.1" id="Layer_1" xmlns="http://www.w3.org/2000/svg" xmlns:xlink="http://www.w3.org/1999/xlink" x="0px" y="0px"
	 viewBox="0 0 240 240" enable-background="new 0 0 240 240" xml:space="preserve">
<path fill="#FF5959" d="M142.9,105.7c-9.6-21.6,6-52.9,51.7-52.9c32.4,0,45.6,25.2,45.6,49.2c0,36-38.4,50.4-38.4,50.4
	s-19.2,63.7-78.1,63.7c-20.4,0-32.4-2.4-40.8-3.6c-8.4,0-15.6,3.6-20.4,3.6S27.6,195.8,18,169.3C2.4,130.9,1.2,100.9,0,85.3
	c-1.2-21.6,2.4-36,13.2-45.6c7.2-6,15.6-14.4,25.2-15.6c10.8-1.2,15.6,3.6,22.8,9.6c6,4.8,12,12,15.6,16.8c1.2,2.4,1.2,6-1.2,7.2
	C58.9,73.2,45.6,73.2,42,70.8c-6-6-12-2.4-9.6,3.6c2.4,4.8,6,22.8,20.4,36c16.8,14.4,21.6,27.6,26.4,38.4
	C81.7,138.1,90.1,98.5,142.9,105.7z"/>
</svg>
