<?xml version="1.0" encoding="utf-8"?>
<!-- Generator: Adobe Illustrator 18.0.0, SVG Export Plug-In . SVG Version: 6.00 Build 0)  -->
<!DOCTYPE svg PUBLIC "-//W3C//DTD SVG 1.1//EN" "http://www.w3.org/Graphics/SVG/1.1/DTD/svg11.dtd">
<svg version="1.1" id="Layer_1" xmlns="http://www.w3.org/2000/svg" xmlns:xlink="http://www.w3.org/1999/xlink" x="0px" y="0px"
	 viewBox="0 0 100 100" enable-background="new 0 0 100 100" xml:space="preserve">
<path fill="#FFFFFF" d="M49.1,65.4L1.1,37.6c-0.8-0.5-1.1-1.6-0.6-2.4l0,0c0.5-0.8,1.6-1.1,2.4-0.6l48.1,27.7
	c0.8,0.5,1.1,1.6,0.6,2.4l0,0C51.1,65.6,50,65.9,49.1,65.4z"/>
<path fill="#FFFFFF" d="M98.9,37.6L50.9,65.4c-0.8,0.5-1.9,0.2-2.4-0.6v0c-0.5-0.8-0.2-1.9,0.6-2.4l48.1-27.7
	c0.8-0.5,1.9-0.2,2.4,0.6v0C100,36.1,99.8,37.2,98.9,37.6z"/>
</svg>
