<?xml version="1.0" encoding="utf-8"?>
<!-- Generator: Adobe Illustrator 18.0.0, SVG Export Plug-In . SVG Version: 6.00 Build 0)  -->
<!DOCTYPE svg PUBLIC "-//W3C//DTD SVG 1.1//EN" "http://www.w3.org/Graphics/SVG/1.1/DTD/svg11.dtd">
<svg version="1.1" id="Layer_1" xmlns="http://www.w3.org/2000/svg" xmlns:xlink="http://www.w3.org/1999/xlink" x="0px" y="0px"
	 viewBox="0 0 240 240" enable-background="new 0 0 240 240" xml:space="preserve">
<g>
	<path fill="#414141" d="M144.4,130.1c0-0.1,0-0.1,0-0.2C144.3,130,144.3,130,144.4,130.1z"/>
	<path fill="#414141" d="M170.5,111.8c-5.7,0-9.8,3.1-11.2,10.8c-1.3,7.7,2.4,8,3.6,8c1.1,0,2.7-0.6,4.7-2.2L170.5,111.8z"/>
	<path fill="#414141" d="M239.8-0.2L239.8-0.2l-240,0v46H0V194h-0.2v46h240v-0.3h0.2v-240H239.8z M154.1,140.8
		c-4.7,0-7.9-2.3-9.1-6.6c-5.3,4.4-10.9,6.6-16.1,6.6c-5.9,0-7.8-4-7.9-8.3c0,0,0,0,0-0.1c-5.8,5.6-12.1,8.4-18,8.4
		c-6.2,0-7.9-4.3-7.9-8.8c-5.4,3.8-12.9,7.9-20.4,8.7c-19.9,2.2-30-11.8-21.8-30.6C56.1,102.8,64.8,93,79.7,93
		c13.6,0,14.8,7.1,14.3,9.8c-0.6,3.5-3.9,6.6-7.4,6.6c-3.4,0-5.8-3-5.1-6.6c0.2-1,0.6-2,1.1-2.8c-9.5-2.7-14.8,10.2-16.2,17.9
		c-1.4,7.8-0.2,16.5,13.4,15.1c5.8-0.6,11.9-3.1,15.5-5.4c0,0,0.1,0,0.2,0c0,0,0,0,0-0.1l5.9-33.6c0.2-0.9,0.3-1.5,0.7-2
		c2.5-2.4,10.4-4,13.6-3.9c3,0.1,2.5,1.8,2.2,3.1l-6.4,36.3c-0.6,3.3,0.6,4.3,2,4.3c2,0,5.5-2.1,7.7-3.7l2.7-15.5
		c0.2-1,0.4-1.5,0.8-2c2.5-2.5,10.4-4,13.6-3.9c2.9,0.1,2.5,1.7,2.2,3.1l-3.1,17.8c-0.6,3.3,0.5,4.3,2,4.3c1.3,0,3.1-0.8,4.8-1.9
		c0-1.5,0.1-3.2,0.4-4.9c1.9-10.9,11.1-18.6,29.4-18.6c3.6,0,7.6,0.5,12,1.2c0.7,0.1,1.2,0.6,1.1,1.3l-7.9,45.2
		c-0.2,1-0.3,1.5-0.8,2c-2.5,2.5-10.3,4-13.6,3.9c-2.9-0.1-2.5-1.7-2.2-3.1l4.1-23.4C164.2,136.4,161,140.8,154.1,140.8z
		 M126.4,96.4c-0.1-3.9,3.9-7,8.7-7c4.8,0,8.7,3.1,8.7,7c0,3.8-3.9,7-8.7,7C130.3,103.4,126.4,100.2,126.4,96.4z"/>
</g>
</svg>
