<?xml version="1.0" encoding="utf-8"?>
<!-- Generator: Adobe Illustrator 18.0.0, SVG Export Plug-In . SVG Version: 6.00 Build 0)  -->
<!DOCTYPE svg PUBLIC "-//W3C//DTD SVG 1.1//EN" "http://www.w3.org/Graphics/SVG/1.1/DTD/svg11.dtd">
<svg version="1.1" id="Layer_1" xmlns="http://www.w3.org/2000/svg" xmlns:xlink="http://www.w3.org/1999/xlink" x="0px" y="0px"
	 viewBox="0 0 100 100" enable-background="new 0 0 100 100" xml:space="preserve">
<g id="Captions">
</g>
<g id="Your_Icon">
	<path fill="#F1C40F" d="M90.2,70.2c1.7-4.3,2.3-9.1,1.3-14c-2.6-13.6-15.8-22.4-29.3-19.8c-0.6,0.1-1.2,0.3-1.8,0.4
		c0.2,2.4,0,4.9-0.4,7.3c-1.9,9.7-8.8,17.4-17.7,20.5c0.1,0.3,0.1,0.7,0.2,1C45,79.3,58.1,88.2,71.7,85.6c5.1-1,9.5-3.5,12.9-6.9
		l15.4,4.6L90.2,70.2z M74.6,65.1L74.6,65.1l-7.8,5.9h0l-7.7-5.9l0,0c-1.3-1-2.2-2.6-2.2-4.4c0-3.1,2.5-5.5,5.6-5.5
		c1.8,0,3.4,0.9,4.4,2.2c1-1.3,2.6-2.2,4.4-2.2c3.1,0,5.6,2.5,5.6,5.5C76.8,62.4,76,64,74.6,65.1z"/>
	<path fill="#F1C40F" d="M57.6,43.8c2.6-13.6-6.2-26.7-19.8-29.3c-13.6-2.6-26.7,6.2-29.3,19.8c-0.9,4.9-0.4,9.7,1.3,14L0,61.2
		l15.4-4.6c3.4,3.4,7.8,5.9,12.9,6.9C41.9,66.2,55,57.3,57.6,43.8z M34.9,44.8l-3.6-3.6l-11.6,7l11.7-15l3.6,3.6l11.6-7L34.9,44.8z"
		/>
</g>
</svg>
