<?xml version="1.0" encoding="utf-8"?>
<!-- Generator: Adobe Illustrator 18.0.0, SVG Export Plug-In . SVG Version: 6.00 Build 0)  -->
<!DOCTYPE svg PUBLIC "-//W3C//DTD SVG 1.1//EN" "http://www.w3.org/Graphics/SVG/1.1/DTD/svg11.dtd">
<svg version="1.1" id="Layer_1" xmlns="http://www.w3.org/2000/svg" xmlns:xlink="http://www.w3.org/1999/xlink" x="0px" y="0px"
	 viewBox="0 0 100 100" enable-background="new 0 0 100 100" xml:space="preserve">
<circle fill="#FFFFFF" cx="47.4" cy="10.5" r="10.5"/>
<path fill="#FFFFFF" d="M17.1,21.1l2.6,10.5c1.3,5.3,4.5,5.3,8.4,5.3h8.7c3.1,5.3,1.7,13,2.6,21.1h-4.8c-5.3,0-13.7,5.3-8.4,15.8
	l7.9,15.8c5.3,10.5,13.2,2.6,10.5-2.6l-7.9-15.8c-1.3-2.6,1.4-2.6,2.6-2.6h13c0,0,6.2,13.8,13.6,23.3c2.7,3.5,5.7,8.3,9.5,8.3
	c2.6,0,7.1-4.1,2.3-9.8c-9-10.7-14.7-21.8-14.7-27c0-6.1-1.1-19-2.6-26.3h7.9C71,42,75,50,75,50c2.9,5,9.2,4.7,9.2,0
	c0-0.6,0-2-0.7-3.6L75,28.9c-0.5-1.1-1.3-2.6-5.3-2.6H28.9L25,13.2c-1.6-5.3-9.2-5.3-9.2,0C15.8,15.8,16.7,19,17.1,21.1L17.1,21.1z"
	/>
</svg>
