<?xml version="1.0" encoding="utf-8"?>
<!-- Generator: Adobe Illustrator 18.0.0, SVG Export Plug-In . SVG Version: 6.00 Build 0)  -->
<!DOCTYPE svg PUBLIC "-//W3C//DTD SVG 1.1//EN" "http://www.w3.org/Graphics/SVG/1.1/DTD/svg11.dtd">
<svg version="1.1" id="Layer_1" xmlns="http://www.w3.org/2000/svg" xmlns:xlink="http://www.w3.org/1999/xlink" x="0px" y="0px"
	 viewBox="0 0 83.1 83.1" enable-background="new 0 0 83.1 83.1" xml:space="preserve">
<path fill="#FF5959" d="M65.3,24.2c0,13.4-10.6,24.2-23.7,24.2S17.9,37.6,17.9,24.2C17.8,10.8,28.4,0,41.5,0
	C54.7,0,65.3,10.8,65.3,24.2z M41.5,8c-8.8,0-16,7.3-16,16.2c0,9,7.2,16.2,16,16.2s16-7.3,16-16.2C57.5,15.2,50.4,8,41.5,8z"/>
<rect x="22.7" y="60.3" transform="matrix(6.599811e-03 1 -1 6.599811e-03 105.5284 22.305)" fill="#FF5959" width="37.6" height="7.9"/>
<rect x="24.1" y="60.3" fill="#FF5959" width="35.2" height="7.9"/>
</svg>
