<?xml version="1.0" encoding="utf-8"?>
<!-- Generator: Adobe Illustrator 18.0.0, SVG Export Plug-In . SVG Version: 6.00 Build 0)  -->
<!DOCTYPE svg PUBLIC "-//W3C//DTD SVG 1.1//EN" "http://www.w3.org/Graphics/SVG/1.1/DTD/svg11.dtd">
<svg version="1.1" id="Layer_1" xmlns="http://www.w3.org/2000/svg" xmlns:xlink="http://www.w3.org/1999/xlink" x="0px" y="0px"
	 viewBox="0 0 100 100" enable-background="new 0 0 100 100" xml:space="preserve">
<g id="Captions">
</g>
<g id="Your_Icon">
	<path fill="#E67E22" d="M61.8,0.3C66.6-0.5,72,2,74.8,6c2.8,3.9,4.1,8.6,4.7,13.4c0.5,3.9,0.9,7.7,0.7,11.6
		c-0.1,1.4-0.1,2.9-0.5,4.2c-0.4,1.2-0.6,2.9-1.2,4c-0.7,1.3-1.4,2.5-2.2,3.8c-0.6,1-1.5,1.9-2.3,2.9c-0.7,0.9-1.4,1.7-2,2.6
		c-0.7,1.1-1.8,2.2-2.3,3.4c-0.5,1.3-0.9,2.3-0.9,3.6c0,1.2-0.2,2.5,0.2,3.7c0.8,2.8,1.6,5.6,2.2,8.4c0.4,1.7,0.9,3.3,1.1,5
		c0.1,1.7,0.6,4.1,0.6,5.9c0,2,0,3.6,0,5.5c0,1.7-0.1,3.8-0.5,5.9c-0.2,1.4-0.4,1.9-0.8,3.4c-0.4,1.4-0.9,2.8-1.7,4
		c-1.2,1.9-2.8,2.5-4.9,2.6c-0.8,0-1.6-0.1-2.5-0.4c-1.2-0.4-1.9-1.5-2.4-2.6c-1.2-2.3-1.5-4.9-1.8-7.4c-0.2-2.2-0.4-4.3-0.4-6.5
		c0-3,0-6,0.1-8.9c0.1-2.2,0.1-4.3,0.3-6.5c0.2-2.4,0.7-4.7,0.9-7.1c0.3-3.3,1.1-6.6,1.4-9.9c0.4-5.4,0.9-10.7,1.1-16.1
		c0.4-11,0.4-21.9,0.2-32.9C61.8,1.2,61.8,0.7,61.8,0.3z"/>
	<g>
		<path fill="#E67E22" d="M42.8,24.9c1.3,0.9,3.6,0.3,4-1.4c0.5-2.3,0.3-4.8,0.3-7.2C47,11.1,46.8,5.9,46.8,0.6c1.3,0,2.8,0,4.8,0.5
			c0.9,0.2,1,0.4,1,0.4s0.1,2.3,0.1,3.4c0.2,3.8,0.3,7.6,0.5,11.4c0.2,3.7,0.3,7.5,0.3,11.2c0,3.2-0.2,6.3-2.2,8.9
			c-1.8,2.4-4.3,3.7-6.6,5.5c-2.7,2-2.4,5.1-2,8.1c1.2,7.3,2.1,14.7,2.8,22.1c0.4,3.8,0.6,7.7,0.5,11.5C46,87,45.9,90.7,44.8,94
			c-0.9,2.6-2.9,5.8-5.9,6c-2.9,0.2-4.7-2.6-5.6-5c-2.3-6.8-1.9-14.2-1.3-21.3c0.3-3.8,0.5-7.6,0.9-11.3c0.4-3.8,1-7.7,1.6-11.5
			c0.3-2.1,1.2-5.5-0.3-7.4c-1.6-2-4-2.8-6-4.3c-5-3.8-4.6-10-4.3-15.7c0.3-6.3,0.8-19.4,1-22.1c0,0,1.2-0.2,1.8-0.3
			c1.3-0.2,2.7-0.3,4-0.4c0.1,3.9,0.1,7.8,0.1,11.7c0,3.7-0.3,7.5-0.1,11.2c0.1,1.9,2.9,2,4,1c0.9-0.8,0.8-2.5,0.8-3.6
			c0.1-1.9,0-3.9,0-5.8c-0.1-3.8-0.1-7.6-0.1-11.5c0-0.7,0-1.4,0-2.1c0-1,0-1.3,0-1.3s1.2-0.2,1.5-0.2c0.8,0,1-0.1,1.8-0.1
			c0.5,0,0.8,0,2.1,0.2C41.3,0.3,42,0.5,42,0.5s0,2.1,0,3.2c-0.1,3.7-0.1,7.5-0.2,11.2c-0.1,2-0.1,4.1-0.1,6.1c0,0.8,0,1.7,0.3,2.5
			c0.2,0.8,1.1,1.1,1.3,1.8"/>
	</g>
</g>
</svg>
