<?xml version="1.0" encoding="utf-8"?>
<!-- Generator: Adobe Illustrator 18.0.0, SVG Export Plug-In . SVG Version: 6.00 Build 0)  -->
<!DOCTYPE svg PUBLIC "-//W3C//DTD SVG 1.1//EN" "http://www.w3.org/Graphics/SVG/1.1/DTD/svg11.dtd">
<svg version="1.1" id="Xbox_360_Controller" xmlns="http://www.w3.org/2000/svg" xmlns:xlink="http://www.w3.org/1999/xlink"
	 x="0px" y="0px" viewBox="0 0 100 100" enable-background="new 0 0 100 100" xml:space="preserve">
<path id="Shape" fill="#2ECC71" d="M86.2,21c0,0,0.3-1.2,0.3-1.8c-1.8-1.7-12.7-3.6-16-3.4c0,0-0.1,0.4-0.2,0.8
	c-2.8,0.5-4,1.9-9.7,4.5c-3,1.3-18.2,1.3-21.2,0c-5.7-2.6-6.9-4-9.7-4.5c-0.1-0.4-0.2-0.8-0.2-0.8c-3.3-0.2-14.2,1.6-16,3.4
	c0,0.7,0.3,1.8,0.3,1.8C-0.1,41.4-3.9,80.3,4.2,83.6C15.2,88.2,26,65.2,37,65.2c4.3,0,21.7,0,26,0c11,0,21.8,23.1,32.8,18.5
	C103.9,80.3,100.1,41.4,86.2,21z M49.5,40.3c-3.5,0-6.3-2.8-6.3-6.3c0-3.5,2.8-6.3,6.3-6.3c3.5,0,6.3,2.8,6.3,6.3
	C55.8,37.5,53,40.3,49.5,40.3z"/>
</svg>
