<?xml version="1.0" encoding="utf-8"?>
<!-- Generator: Adobe Illustrator 18.0.0, SVG Export Plug-In . SVG Version: 6.00 Build 0)  -->
<!DOCTYPE svg PUBLIC "-//W3C//DTD SVG 1.1//EN" "http://www.w3.org/Graphics/SVG/1.1/DTD/svg11.dtd">
<svg version="1.1" id="Your_Icon" xmlns="http://www.w3.org/2000/svg" xmlns:xlink="http://www.w3.org/1999/xlink" x="0px" y="0px"
	 viewBox="0 0 100 100" enable-background="new 0 0 100 100" xml:space="preserve">
<g>
	<g>
		<path fill="#34495E" d="M77.5,60.6l-0.1-0.2c0,0-1.7,1.1-3.4,3.1c-1.7,2-3.4,5-3.4,8.9c0,1.9,0.4,3.9,1.4,6.2
			c0.8,1.8,1.1,3.5,1.1,5c0,4.2-2.3,7.6-4.7,10c-1.2,1.2-2.3,2.1-3.2,2.8c-0.4,0.3-0.8,0.6-1.1,0.7c-0.1,0.1-0.2,0.1-0.3,0.2
			c-0.1,0-0.1,0.1-0.1,0.1l0.1,0.2l0.1,0.1c0,0,1.7-2,3.5-4.7c1.7-2.8,3.5-6.3,3.5-9.5c0-0.2,0-0.5,0-0.7c-0.1-1.6-0.6-3.4-1.1-5.2
			c-0.4-1.9-0.9-3.8-0.9-5.7c0-2,0.4-4,1.7-5.8c1.3-1.9,3.4-3.6,6.9-5.1L77.5,60.6l-0.1-0.2L77.5,60.6l-0.1-0.2
			c-3.5,1.5-5.7,3.3-7.1,5.3c-1.3,1.9-1.8,4-1.8,6.1c0,2,0.4,4,0.9,5.8c0.4,1.9,0.9,3.6,1.1,5.2c0,0.2,0,0.5,0,0.7
			c0,3.1-1.7,6.6-3.4,9.3c-0.9,1.4-1.7,2.5-2.4,3.4c-0.3,0.4-0.6,0.7-0.8,1c-0.1,0.1-0.2,0.2-0.2,0.3c0,0.1-0.1,0.1-0.1,0.1
			l-0.7,0.9l1-0.6c0,0,2.4-1.4,4.8-3.8c2.4-2.4,4.8-6,4.8-10.3c0-1.6-0.3-3.4-1.1-5.2c-1-2.2-1.4-4.2-1.4-6c0-3.7,1.7-6.7,3.3-8.7
			c0.8-1,1.7-1.8,2.3-2.3c0.3-0.3,0.6-0.4,0.8-0.6c0.1-0.1,0.2-0.1,0.2-0.1c0,0,0.1,0,0.1,0l-0.2-0.3L77.5,60.6z"/>
		<path fill="#34495E" d="M91.1,55.6c-1.5-3.7-3.8-6.1-6.3-7.4c-2.5-1.3-5-1.7-7.2-1.7c-2.3,0-4.1,0.4-5,0.6c0,0-0.2-0.1-2-2
			c-2-2-4.5,2.6-5.2,3.5c-0.7,0.9,0.5,1.8,0.5,1.8c-1.1,0-2,1.4-2,1.4c-0.6-0.1-3.3,2.2-4.1,2.8l-0.3-0.5c0,0-2.2,2-2.2,2.4
			c-0.1,0.4,0,0.6,0,0.6L53.2,61c-0.5-0.4-1.1-0.8-1.1-0.8c0-2.1,1.6-15.9,2.2-15.9c0.6,0,0.5-1.3,0.5-1.3v-8.5
			c-0.3-1.1-1.4-1.6-1.4-1.6v-1.6c2.2-0.4,2.8-3.1,2.8-3.1v-0.9c0,0,3.9-0.2,5.5-0.2c1.6-0.1,1.8-1.2,2.2-2.4
			c0.5-1.2,1.1-1.6,1.1-1.6c0.9,0,0-0.7,0-0.7H54.2L53,20.6h-0.8v-3.3c2-0.1,1.9-1.6,1.4-2.2c-0.5-0.7-0.3-2.1-0.3-3.2
			s0.8-1.6,0.8-1.6c0.9-0.5,0.5-1.7,0.2-2.1c-0.3-0.3-0.1-1.1-0.1-1.1c2.5-1.1,2.3-3.1,2.3-3.1V1.2c1.2,0,1.1-1,0.4-1
			c-0.6,0-6.5,0-6.5,0s-5.9,0-6.5,0c-0.6,0-0.8,1,0.4,1v2.9c0,0-0.2,2,2.3,3.1c0,0,0.2,0.7-0.1,1.1c-0.3,0.4-0.7,1.5,0.2,2.1
			c0,0,0.8,0.5,0.8,1.6s0.2,2.5-0.3,3.2c-0.5,0.7-0.6,2.2,1.4,2.2v3.3h-0.8l-1.3,1.8H35.7c0,0-0.9,0.6,0,0.7c0,0,0.6,0.4,1.1,1.6
			c0.5,1.2,0.6,2.3,2.2,2.4c1.6,0.1,5.5,0.2,5.5,0.2v0.9c0,0,0.6,2.7,2.8,3.1v1.6c0,0-1.1,0.6-1.4,1.6V43c0,0-0.1,1.3,0.5,1.3
			s2.2,13.9,2.2,15.9c0,0-0.8,0.4-1.2,0.9L47,60.4c0,0,0.8-2.3-2-1.3c0,0-1.2-0.4-1.8-0.9c0,0-0.6-0.2-0.9,0l0,0
			c-0.2,0.3,0.1,0.9,0.1,0.9c0.6,0.5,1.1,1.7,1.1,1.7c-0.7,2.9,1.5,1.8,1.5,1.8l0.6,0.3c-0.2,0.3-0.3,0.8-0.4,1.3
			c0,0-1.5,1.8-0.1,1.8c1.3,0.1,0.9,3.4,0.9,5.5c0,0-2,1.2-0.5,3c-12.3,2-9.7,8.9-7.4,12.5c-3,0.2-6,0.3-9.1,0.4
			c-3.8,0.1-8.8,0.4-12.9,0.9c-2,0.3-3.9,0.6-5.2,0.9c-0.7,0.2-1.2,0.3-1.6,0.5c-0.2,0.1-0.4,0.2-0.6,0.4c-0.1,0.1-0.2,0.2-0.2,0.3
			c-0.1,0.1-0.1,0.3-0.1,0.4c0,0.2,0.1,0.4,0.2,0.5c0.1,0.1,0.2,0.2,0.3,0.3c0.2,0.2,0.5,0.3,0.8,0.4c0.6,0.2,1.3,0.4,2.3,0.6
			c2.8,0.5,7.4,1,14.7,1.4c0,1.1,0.3,4,4.2,4c4.8,0,4.2-0.8,4-1.3c-0.2-0.5,2.8,0.9,2.7-0.3c0,0,0.9,0.6,0.9-0.4
			c0,0,10.6,3.3,13.6,2.4c0,0-0.1-1.5,1,0.2c0,0,1.6,1.4,2.5,0c0,0-0.1-0.6,1.2,0.3c1.2,0.8,3.4,1.2,4.3-0.1L64,99v0l0,0
			c0.2,0,0.4-0.3,0.5-0.7c0-0.4-0.1-0.8-0.3-0.8l0,0v0l-2.5-0.3c0-0.1,0-0.1,0-0.2c-0.3-2-2.9-2.1-4.3-1.6c-1.5,0.6-1.2,0-1.2,0
			c-0.6-1.6-2.5-0.6-2.5-0.6c-1.5,1.4-1.1,0-1.1,0c-2.7-1.5-13.7-0.8-13.7-0.8c0.3-1-0.8-0.6-0.8-0.6c0.3-1.1-2.9-0.5-2.6-0.9
			c0.3-0.4,1.1-1.1-3.6-2.2c-3.3-0.7-4.5,1.3-4.9,2.5c-6.2-0.4-10.6-0.8-13.4-1.2c-1.6-0.2-2.6-0.5-3.3-0.7
			c-0.2-0.1-0.3-0.1-0.4-0.2c0.2-0.1,0.6-0.3,1.1-0.4c0.9-0.2,2.1-0.5,3.5-0.7c4.3-0.7,10.3-1.1,14.7-1.2c3.3-0.1,6.6-0.2,9.8-0.4
			c0.5,0.6,0.8,1,0.9,1c0.5,0.4,0,0.8,0,0.8c1.4,0.8,8.5,1.1,10.3,1.1v0v0l0,0v0c0,0,0.1,0,0.2,0c0.1,0,0.2,0,0.2,0v0l0,0v0v0
			c1.8-0.1,8.9-0.3,10.3-1.1c0,0-0.5-0.4,0-0.8c0.1-0.1,1.1-1.2,2-2.7c7.5-0.3,14.8-3.7,20.2-8.4c2.7-2.4,5-5.2,6.6-8.1
			c1.6-2.9,2.5-6,2.5-9C92.1,59.1,91.8,57.3,91.1,55.6z M88.6,69.3c-2.3,4.2-6,8.1-10.6,11.1c-4.3,2.8-9.3,4.6-14.5,4.9
			c1.8-3.8,2.2-9.2-8.4-10.8c1.5-1.8-0.5-2.9-0.5-2.9c0-2.1-0.4-5.5,0.9-5.5c1.3-0.1-0.1-1.8-0.1-1.8c-0.1-0.7-0.3-1.2-0.6-1.6
			l4.4-3c0,0,0.1,0.1,0.5,0.1c0.4,0,2.8-1.7,2.8-1.7l-0.5-0.5c0.9-0.6,3.7-2.6,3.7-3.2c0,0,1.6-0.5,1.9-1.5c0,0,0.6,1.4,1.6,0.9
			c1.1-0.4,6.1-1.7,4.7-4.1c-0.3-0.6-0.6-1.1-0.8-1.4c0.9-0.2,2.5-0.5,4.4-0.5c2.1,0,4.5,0.4,6.7,1.6c2.2,1.2,4.3,3.3,5.8,6.8
			c0.6,1.5,0.9,3.1,0.9,4.8C91,63.6,90.1,66.5,88.6,69.3z"/>
		<path fill="#34495E" d="M78.4,59.4c0,0-10.4,6.5-5.3,18c5,11.4-8.3,19.1-8.3,19.1s7.4-8.4,6.8-14.8C71,75.2,64.8,65.4,78.4,59.4z"
			/>
		<path fill="#34495E" d="M78.4,59.4l-0.1-0.2c0,0-1.7,1.1-3.4,3.1c-1.7,2-3.4,5-3.4,8.9c0,1.9,0.4,3.9,1.4,6.2
			c0.8,1.8,1.1,3.5,1.1,5c0,4.2-2.3,7.6-4.7,10c-1.2,1.2-2.3,2.1-3.2,2.8c-0.4,0.3-0.8,0.6-1.1,0.7c-0.1,0.1-0.2,0.1-0.3,0.2
			c-0.1,0-0.1,0.1-0.1,0.1l0.1,0.2l0.1,0.1c0,0,1.7-2,3.5-4.7c1.7-2.8,3.5-6.3,3.5-9.5c0-0.2,0-0.5,0-0.7c-0.1-1.6-0.6-3.4-1.1-5.2
			c-0.4-1.9-0.9-3.8-0.9-5.7c0-2,0.4-4,1.7-5.8c1.3-1.9,3.4-3.6,6.9-5.1L78.4,59.4l-0.1-0.2L78.4,59.4l-0.1-0.2
			c-3.5,1.5-5.7,3.3-7.1,5.3c-1.3,1.9-1.8,4-1.8,6.1c0,2,0.4,4,0.9,5.8c0.4,1.9,0.9,3.6,1.1,5.2c0,0.2,0,0.5,0,0.7
			c0,3.1-1.7,6.6-3.4,9.3c-0.9,1.4-1.7,2.5-2.4,3.4c-0.3,0.4-0.6,0.7-0.8,1c-0.1,0.1-0.2,0.2-0.2,0.3c-0.1,0.1-0.1,0.1-0.1,0.1
			l-0.7,0.9l1-0.6c0,0,2.4-1.4,4.8-3.8c2.4-2.4,4.8-6,4.8-10.3c0-1.6-0.3-3.4-1.1-5.2c-1-2.2-1.4-4.2-1.4-6c0-3.7,1.7-6.7,3.3-8.7
			c0.8-1,1.7-1.8,2.3-2.3c0.3-0.3,0.6-0.4,0.8-0.6c0.1-0.1,0.2-0.1,0.2-0.1c0,0,0.1,0,0.1,0l-0.2-0.3L78.4,59.4z"/>
	</g>
</g>
</svg>
