<?xml version="1.0" encoding="utf-8"?>
<!-- Generator: Adobe Illustrator 18.0.0, SVG Export Plug-In . SVG Version: 6.00 Build 0)  -->
<!DOCTYPE svg PUBLIC "-//W3C//DTD SVG 1.1//EN" "http://www.w3.org/Graphics/SVG/1.1/DTD/svg11.dtd">
<svg version="1.1" id="Layer_1" xmlns="http://www.w3.org/2000/svg" xmlns:xlink="http://www.w3.org/1999/xlink" x="0px" y="0px"
	 viewBox="0 0 240 240" enable-background="new 0 0 240 240" xml:space="preserve">
<path fill="#F15B5C" d="M240,98.5c0-13.7-7.2-26.6-19.3-34c-6.4-26-30.9-44.9-59.8-44.9c-7,0-13.7,1-20.1,3.1
	c-8-7.7-18.8-11.9-30.4-11.9c-13.4,0-26,5.9-34.3,15.7c-1.8-0.3-3.6-0.3-5.4-0.3c-19.6,0-36.3,12.1-41.5,29.6
	C11.6,61.9,0,77.1,0,94.6c0,5.2,1,10.3,3.1,15.2C1,114.7,0,119.9,0,125c0,15.2,8.8,28.9,22.7,35.8c8,7.5,19.1,11.9,30.4,11.9
	c7.2,0,14.2-1.5,20.6-4.9c8.2,9,20.1,14.2,32.7,14.2c8,0,15.5-2.1,21.9-5.7c7.2,5.4,16.2,8.8,25.3,10.1
	c15.5,15.7,27.6,35.8,27.6,36.1l3.9,6.7l19.8-14.2l-11.1-31.5c6.2-2.8,11.3-7.5,14.4-13.4c13.4-7.2,22.2-20.9,22.2-35.6
	c0-3.4-0.5-6.4-1.3-9.8C236.4,117.6,240,108.3,240,98.5z M200.6,158.5l-2.6,1l-1,2.6c-2.3,5.2-7.2,9-13.1,10.1l-8,1.5l10.6,29.9
	c-5.7-8.2-14.2-19.6-24.2-29.1l-2.1-1.5l-2.6-0.3c-6.2-0.5-11.9-2.3-17-5.2l20.4-16.2c5.4-4.1,12.4-5.9,15-5.4l9.3,2.6l3.6-13.1
	l-9.3-2.6c-8.2-2.1-20.1,2.3-26.8,8l-22.9,18l0,0l-4.6,3.6c-5.2,3.9-11.3,5.9-18,5.9c-9.5,0-18.6-4.4-23.7-11.9V149v-3.1v-9.8
	c0-5.4,2.6-10.8,4.1-11.6l7.7-4.6l-7.7-12.6l-7.7,4.6c-3.6,2.3-6.4,6.2-8.5,10.6c-1.5-1.5-3.4-2.8-5.2-3.9l-22.9-13.9l-7.5,12.1
	l22.7,13.9c5.4,3.4,9.3,10.6,9.3,15v3.1v5.9c-5.2,2.6-9.3,3.9-15,3.9c-8,0-15.7-3.1-21.1-8.5l-0.8-0.8l-1-0.5
	c-9.8-4.6-15.7-13.7-15.7-23.7c0-4.1,1-8.2,3.1-11.9l1.8-3.4l-1.8-3.4c-2.1-3.6-3.1-7.7-3.1-11.9c0-12.4,9-22.9,22.2-25.8l4.6-1
	l0.8-4.6c2.3-12.9,14.2-22.4,28.6-22.4c2.3,0,4.6,0.3,7,0.8l4.9,1l2.6-4.1c5.2-8.2,14.7-13.1,25-13.1c6.7,0,12.9,2.1,18,5.7
	l-5.2,4.9l0,0l-3.6,3.4c-4.9,3.9-11.1,5.9-13.4,5.4l-10.1-1.5L93.3,57l10.1,1.5c0.3,0,0.8,0,1,0c-1.5,5.2-2.3,10.6-1.3,15.2
	l2.3,13.4l13.9-2.3L117,71.4c-0.8-5.2,1.8-12.9,5.4-16.2l5.9-5.4c0.8-0.5,1.5-1.3,2.3-1.8l11.1-10.3c5.9-2.6,12.4-3.6,19.1-3.6
	c23.2,0,42.8,15.2,46.7,36.3l0.5,3.4l3.1,1.5c9,4.6,14.7,13.7,14.7,23.2c0,4.9-1.5,9.8-4.4,13.9l-2.1-2.1l0,0l-9.3-9.3
	c-3.9-3.9-8-12.9-8.8-18.8l-1.5-13.9l-13.7,1.5l1.5,13.9c0.5,3.9,1.8,8.5,3.6,12.6c-1,0-1.8-0.3-2.6-0.3L158,94.6l-0.8,13.7
	l30.9,1.5c6.2,0.3,15.5,4.1,19.3,8l7.2,7.2l0.3,0.8c1,2.8,1.8,5.9,1.8,9C216.8,144.9,210.6,153.9,200.6,158.5z"/>
</svg>
