<?xml version="1.0" encoding="utf-8"?>
<!-- Generator: Adobe Illustrator 18.0.0, SVG Export Plug-In . SVG Version: 6.00 Build 0)  -->
<!DOCTYPE svg PUBLIC "-//W3C//DTD SVG 1.1//EN" "http://www.w3.org/Graphics/SVG/1.1/DTD/svg11.dtd">
<svg version="1.1" id="Capa_1" xmlns="http://www.w3.org/2000/svg" xmlns:xlink="http://www.w3.org/1999/xlink" x="0px" y="0px"
	 viewBox="0 0 83.1 83.1" enable-background="new 0 0 83.1 83.1" xml:space="preserve">
<path fill="#FFFFFF" d="M30.5,55.9c-2.9,0-5.5-0.3-8.1-0.8L10.4,66.9V50.1C4.1,45.7,0,39.5,0,32.4C0,19.4,13.7,8.9,30.5,8.9
	s30.5,10.5,30.5,23.4S47.3,55.9,30.5,55.9z M59.3,16.8c3.8,4.4,6,9.9,6,15.7c0,13.6-12.2,24.8-28.2,27.4c4.5,2.1,9.9,3.3,15.5,3.3
	c2.9,0,5.5-0.3,8.1-0.8l11.8,11.8V57.3c6.4-4.3,10.5-10.6,10.5-17.6C83.1,28.4,72.9,19.1,59.3,16.8z"/>
</svg>
