<?xml version="1.0" encoding="utf-8"?>
<!-- Generator: Adobe Illustrator 18.0.0, SVG Export Plug-In . SVG Version: 6.00 Build 0)  -->
<!DOCTYPE svg PUBLIC "-//W3C//DTD SVG 1.1//EN" "http://www.w3.org/Graphics/SVG/1.1/DTD/svg11.dtd">
<svg version="1.1" id="Layer_1" xmlns="http://www.w3.org/2000/svg" xmlns:xlink="http://www.w3.org/1999/xlink" x="0px" y="0px"
	 viewBox="0 0 100 100" enable-background="new 0 0 100 100" xml:space="preserve">
<path d="M99.3,48.2L58.6,7.5c-1-1-2.6-1-3.6,0l-6.9,6.9c-1,1-1,2.6,0,3.6l24.6,24.6H2.6c-1.4,0-2.6,1.1-2.6,2.6v9.7
	c0,1.4,1.1,2.6,2.6,2.6h70.1L48.1,82c-1,1-1,2.6,0,3.6l6.9,6.9c1,1,2.6,1,3.6,0l40.7-40.7c0.5-0.5,0.8-1.2,0.7-1.8
	C100,49.3,99.8,48.7,99.3,48.2z"/>
</svg>
