<?xml version="1.0" encoding="utf-8"?>
<!-- Generator: Adobe Illustrator 18.0.0, SVG Export Plug-In . SVG Version: 6.00 Build 0)  -->
<!DOCTYPE svg PUBLIC "-//W3C//DTD SVG 1.1//EN" "http://www.w3.org/Graphics/SVG/1.1/DTD/svg11.dtd">
<svg version="1.1" id="Layer_1" xmlns="http://www.w3.org/2000/svg" xmlns:xlink="http://www.w3.org/1999/xlink" x="0px" y="0px"
	 viewBox="0 0 240 240" enable-background="new 0 0 240 240" xml:space="preserve">
<path fill="#FF5959" d="M219,0.1L219,0.1L21,0.1l0,0c-1.1,0.1-1.9,1.1-1.6,3.7c0.9,8.4,30.3,219.1,31.2,224.6
	c0,11.4,31,11.4,69.3,11.4c38.3,0,69.3,0,69.3-11.4c0.9-5.5,30.3-216.1,31.2-224.6C220.8,1.2,220.1,0.2,219,0.1z M182,151.8
	c-3.7,14.1-27.8,12.8-62,12.8c-34.2,0-58.3,1.4-62-12.8C53.7,135.3,27.9,6.5,27.9,6.5h184.2C212.1,6.5,186.3,135.3,182,151.8z"/>
</svg>
