<?xml version="1.0" encoding="utf-8"?>
<!-- Generator: Adobe Illustrator 18.0.0, SVG Export Plug-In . SVG Version: 6.00 Build 0)  -->
<!DOCTYPE svg PUBLIC "-//W3C//DTD SVG 1.1//EN" "http://www.w3.org/Graphics/SVG/1.1/DTD/svg11.dtd">
<svg version="1.1" id="Layer_1" xmlns="http://www.w3.org/2000/svg" xmlns:xlink="http://www.w3.org/1999/xlink" x="0px" y="0px"
	 viewBox="0 0 83.1 83.1" enable-background="new 0 0 83.1 83.1" xml:space="preserve">
<g id="Your_Icon">
	<path fill="#FF5959" d="M41.5,11.1c-17.2,0-31.2,14-31.2,31.2s14,31.2,31.2,31.2s31.2-14,31.2-31.2S58.9,11.1,41.5,11.1z
		 M53.9,55.3H29.3c-2,0-3.7-1.7-3.7-3.7c0-2,1.7-3.7,3.7-3.7h24.5c2,0,3.7,1.7,3.7,3.7C57.5,53.7,55.8,55.3,53.9,55.3z M58.1,35.2
		c-1.1,3.2-4.1,6.4-9.8,6.4c-5.5,0-9.5-4.7-13.3-4.7c-1.8,0-2.3,1-2.9,2c-0.5,0.9-1.6,2-3.4,2c-2,0-3.8-1.7-3.8-3.8
		c0-0.5,0.1-1,0.3-1.4c1.1-3.2,4.1-6.4,9.8-6.4c5.5,0,9.8,4.6,13.3,4.6c1.8,0,2.3-0.8,2.9-1.9c0.5-1,1.6-2,3.4-2
		c2.1,0,3.8,1.7,3.8,3.8C58.2,34.4,58.2,34.7,58.1,35.2z"/>
</g>
</svg>
