<?xml version="1.0" encoding="utf-8"?>
<!-- Generator: Adobe Illustrator 17.1.0, SVG Export Plug-In . SVG Version: 6.00 Build 0)  -->
<!DOCTYPE svg PUBLIC "-//W3C//DTD SVG 1.1//EN" "http://www.w3.org/Graphics/SVG/1.1/DTD/svg11.dtd">
<svg version="1.1" id="Layer_1" xmlns="http://www.w3.org/2000/svg" xmlns:xlink="http://www.w3.org/1999/xlink" x="0px" y="0px"
	 viewBox="0 0 61 61" enable-background="new 0 0 61 61" xml:space="preserve">
<g>
	<path d="M54.6,60.1c-1.2,1.2-3.1,1.2-4.2,0L0.9,10.6c-1.2-1.2-1.2-3.1,0-4.2l5.5-5.5c1.2-1.2,3.1-1.2,4.2,0l49.5,49.5
		c1.2,1.2,1.2,3.1,0,4.2L54.6,60.1z"/>
</g>
<g>
	<path d="M0.9,54.6c-1.2-1.2-1.2-3.1,0-4.2L50.4,0.9c1.2-1.2,3.1-1.2,4.2,0l5.5,5.5c1.2,1.2,1.2,3.1,0,4.2L10.6,60.1
		c-1.2,1.2-3.1,1.2-4.2,0L0.9,54.6z"/>
</g>
</svg>
