<?xml version="1.0" encoding="utf-8"?>
<!-- Generator: Adobe Illustrator 18.0.0, SVG Export Plug-In . SVG Version: 6.00 Build 0)  -->
<!DOCTYPE svg PUBLIC "-//W3C//DTD SVG 1.1//EN" "http://www.w3.org/Graphics/SVG/1.1/DTD/svg11.dtd">
<svg version="1.1"
	 id="svg2999" xmlns:rdf="http://www.w3.org/1999/02/22-rdf-syntax-ns#" xmlns:cc="http://creativecommons.org/ns#" xmlns:svg="http://www.w3.org/2000/svg" xmlns:dc="http://purl.org/dc/elements/1.1/"
	 xmlns="http://www.w3.org/2000/svg" xmlns:xlink="http://www.w3.org/1999/xlink" x="0px" y="0px" viewBox="0 0 100 100"
	 enable-background="new 0 0 100 100" xml:space="preserve">
<g id="Layer_x0020_1" transform="matrix(0.78827976,0,0,0.78827976,-0.07268745,-0.17175938)">
	<path id="path3007" fill="#1ABC9C" d="M63.2,38.6L56.7,33L43.9,47.5c-2.7,3.1-7.5,3.4-10.6,0.7l0,0c-3.1-2.7-3.4-7.5-0.7-10.6
		l17.7-20.2c2.7-3.1,7.5-3.4,10.6-0.7l0,0l34.2,30l12.8-14.6c2.7-3.1,7.5-3.4,10.6-0.7l0,0c3.1,2.7,3.4,7.5,0.7,10.6l-17.7,20.2
		c-2.7,3.1-7.5,3.4-10.6,0.7l0,0l0,0l-10.5-9.2L67.7,70.8l7.4,5.5l0,0c3.3,3.3,4.5,8.2,1.8,11.9l-18.2,24.5
		c-2.8,3.8-8.2,4.5-11.9,1.8l0,0c-3.8-2.8-4.5-8.2-1.8-11.9l13.1-17.6l-5.3-4l-31.5,42.4c-2.8,3.8-8.2,4.5-11.9,1.8l0,0
		c-3.8-2.8-4.6-8.2-1.8-11.9L63.2,38.6L63.2,38.6z M100.9,3.8c7.3,5.5,8.9,15.8,3.4,23.2c-5.5,7.3-15.8,8.9-23.2,3.4
		c-7.3-5.5-8.9-15.8-3.4-23.2C83.2-0.1,93.5-1.7,100.9,3.8z"/>
</g>
</svg>
