<?xml version="1.0" encoding="utf-8"?>
<!-- Generator: Adobe Illustrator 18.0.0, SVG Export Plug-In . SVG Version: 6.00 Build 0)  -->
<!DOCTYPE svg PUBLIC "-//W3C//DTD SVG 1.1//EN" "http://www.w3.org/Graphics/SVG/1.1/DTD/svg11.dtd">
<svg version="1.1" id="Layer_1" xmlns="http://www.w3.org/2000/svg" xmlns:xlink="http://www.w3.org/1999/xlink" x="0px" y="0px"
	 viewBox="0 0 83 83" enable-background="new 0 0 83 83" xml:space="preserve">
<path fill="#FFFFFF" d="M41.5,0C21.6,0,5.3,16.2,5.3,36.1c0,12.4,6.3,23.3,15.8,29.7l0,0v15.8c0,3.1,3.1,0,3.1,0l10.2-10.2
	c2.3,0.4,4.7,0.7,7.2,0.7c19.9,0,36.1-16.2,36.1-36.1C77.6,16.1,61.4,0,41.5,0z M17.9,37.6c0-3.5,2.8-6.3,6.3-6.3s6.3,2.8,6.3,6.3
	s-2.8,6.3-6.3,6.3S17.9,41,17.9,37.6z M41.3,43.8c-3.5,0-6.3-2.8-6.3-6.3s2.8-6.3,6.3-6.3s6.3,2.8,6.3,6.3S44.9,43.8,41.3,43.8z
	 M58.7,43.8c-3.5,0-6.3-2.8-6.3-6.3s2.8-6.3,6.3-6.3c3.5,0,6.3,2.8,6.3,6.3S62.1,43.8,58.7,43.8z"/>
</svg>
