<?xml version="1.0" encoding="utf-8"?>
<!-- Generator: Adobe Illustrator 18.0.0, SVG Export Plug-In . SVG Version: 6.00 Build 0)  -->
<!DOCTYPE svg PUBLIC "-//W3C//DTD SVG 1.1//EN" "http://www.w3.org/Graphics/SVG/1.1/DTD/svg11.dtd">
<svg version="1.1" id="Layer_1" xmlns="http://www.w3.org/2000/svg" xmlns:xlink="http://www.w3.org/1999/xlink" x="0px" y="0px"
	 viewBox="0 0 83.1 83.1" enable-background="new 0 0 83.1 83.1" xml:space="preserve">
<rect x="53" y="11" transform="matrix(-0.8464 -0.5326 0.5326 -0.8464 91.8267 71.8739)" fill="#2EBDB9" width="6.6" height="23.4"/>
<path fill="#2EBDB9" d="M61.6,52.3c0,13.4-10.6,24.2-23.7,24.2c-13.1,0-23.7-10.8-23.7-24.2c0-13.4,10.6-24.2,23.7-24.2
	C50.9,28.1,61.6,38.9,61.6,52.3z M37.8,36.1c-8.8,0-16,7.3-16,16.2c0,9,7.2,16.2,16,16.2c8.8,0,16-7.3,16-16.2
	C53.8,43.4,46.7,36.1,37.8,36.1z"/>
<polygon fill="#2EBDB9" points="61.7,13.9 64.1,25.8 69.1,22.1 66.1,5.8 50.5,10.5 49.3,17.6 "/>
</svg>
