<?xml version="1.0" encoding="utf-8"?>
<!-- Generator: Adobe Illustrator 18.0.0, SVG Export Plug-In . SVG Version: 6.00 Build 0)  -->
<!DOCTYPE svg PUBLIC "-//W3C//DTD SVG 1.1//EN" "http://www.w3.org/Graphics/SVG/1.1/DTD/svg11.dtd">
<svg version="1.1" id="Your_Icon" xmlns="http://www.w3.org/2000/svg" xmlns:xlink="http://www.w3.org/1999/xlink" x="0px" y="0px"
	 viewBox="0 0 100 100" enable-background="new 0 0 100 100" xml:space="preserve">
<path d="M90,16.5h-9.6v5.6c0.5,0.8,0.7,1.6,0.7,2.6c0,2.7-2.2,4.9-4.9,4.9s-4.9-2.2-4.9-4.9c0-0.9,0.3-1.8,0.7-2.6v-5.6H28.3v5.6
	c0.5,0.8,0.7,1.6,0.7,2.6c0,2.7-2.2,4.9-4.9,4.9s-4.9-2.2-4.9-4.9c0-0.9,0.3-1.8,0.7-2.6v-5.6H10c-2.8,0-5,2.2-5,5v67.8
	c0,2.8,2.2,5,5,5h80c2.8,0,5-2.2,5-5V21.5C95,18.8,92.8,16.5,90,16.5z M89.6,74.8L75.9,88.4H10.7V35.4h79V74.8z"/>
<path d="M48.7,68.2c1,0,2-0.2,2.4-0.8l0,0l-9.8,11.2h8.7l7.5-8.8c3.9-4.6,5.3-8.8,5.3-12.4c0-7-5.7-11.2-12.5-11.2
	c-7.1,0-12.5,4.2-12.5,10.9C37.9,63.1,41.4,68.2,48.7,68.2z M50.2,53c2.9,0,5,1.8,5,4.5c0,2.6-2,4.5-5,4.5c-2.9,0-5-1.8-5-4.5
	C45.2,54.9,47.2,53,50.2,53z"/>
<path d="M26.8,25c0,1.4-1.1,2.5-2.5,2.5h-0.5c-1.4,0-2.5-1.1-2.5-2.5V8.1c0-1.4,1.1-2.5,2.5-2.5h0.5c1.4,0,2.5,1.1,2.5,2.5V25z"/>
<path d="M78.9,25c0,1.4-1.1,2.5-2.5,2.5h-0.5c-1.4,0-2.5-1.1-2.5-2.5V8.1c0-1.4,1.1-2.5,2.5-2.5h0.5c1.4,0,2.5,1.1,2.5,2.5V25z"/>
</svg>
