<?xml version="1.0" encoding="utf-8"?>
<!-- Generator: Adobe Illustrator 18.0.0, SVG Export Plug-In . SVG Version: 6.00 Build 0)  -->
<!DOCTYPE svg PUBLIC "-//W3C//DTD SVG 1.1//EN" "http://www.w3.org/Graphics/SVG/1.1/DTD/svg11.dtd">
<svg version="1.1" id="Your_Icon" xmlns="http://www.w3.org/2000/svg" xmlns:xlink="http://www.w3.org/1999/xlink" x="0px" y="0px"
	 viewBox="0 0 83.1 83.1" enable-background="new 0 0 83.1 83.1" xml:space="preserve">
<path fill="#FFFFFF" d="M77.9,10.7H69v5.2c0.4,0.7,0.7,1.4,0.7,2.4c0,2.4-2,4.5-4.5,4.5c-2.4,0-4.5-2-4.5-4.5c0-0.9,0.3-1.7,0.7-2.4
	v-5.2H21.3v5.2c0.4,0.7,0.7,1.4,0.7,2.4c0,2.4-2,4.5-4.5,4.5s-4.5-2-4.5-4.5c0-0.9,0.3-1.7,0.7-2.4v-5.2H4.6c-2.6,0-4.6,2-4.6,4.6
	v62.5c0,2.6,2,4.6,4.6,4.6h73.9c2.6,0,4.6-2,4.6-4.6V15.3C82.5,12.9,80.5,10.7,77.9,10.7z M77.6,64.6L65,77.1H4.7V28.2h72.9V64.6
	L77.6,64.6L77.6,64.6z"/>
<path fill="#FFFFFF" d="M39.8,58.4c0.9,0,1.9-0.1,2.2-0.7l0,0l-9.1,10.3h8l6.9-8.2c3.6-4.3,4.9-8.2,4.9-11.5
	c0-6.5-5.3-10.3-11.5-10.3c-6.6,0-11.5,3.9-11.5,10.1C29.9,53.8,33.1,58.4,39.8,58.4z M41.3,44.5c2.7,0,4.6,1.7,4.6,4.2
	s-1.9,4.2-4.6,4.2c-2.7,0-4.6-1.7-4.6-4.2S38.4,44.5,41.3,44.5z"/>
<path fill="#FFFFFF" d="M19.5,18.6c0,1.3-1,2.3-2.3,2.3h-0.4c-1.3,0-2.3-1-2.3-2.3V2.9c0-1.3,1-2.3,2.3-2.3h0.4c1.3,0,2.3,1,2.3,2.3
	V18.6z"/>
<path fill="#FFFFFF" d="M67.7,18.6c0,1.3-1,2.3-2.3,2.3H65c-1.3,0-2.3-1-2.3-2.3V2.9c0-1.3,1-2.3,2.3-2.3h0.4c1.3,0,2.3,1,2.3,2.3
	V18.6z"/>
</svg>
