<?xml version="1.0" encoding="utf-8"?>
<!-- Generator: Adobe Illustrator 18.0.0, SVG Export Plug-In . SVG Version: 6.00 Build 0)  -->
<!DOCTYPE svg PUBLIC "-//W3C//DTD SVG 1.1//EN" "http://www.w3.org/Graphics/SVG/1.1/DTD/svg11.dtd">
<svg version="1.1" id="Layer_1" xmlns="http://www.w3.org/2000/svg" xmlns:xlink="http://www.w3.org/1999/xlink" x="0px" y="0px"
	 viewBox="0 0 240 240" enable-background="new 0 0 240 240" xml:space="preserve">
<path id="Shape" fill="#F15B5C" d="M206.6,50.5c0,0,0.7-2.8,0.7-4.4c-4.4-4.1-30.4-8.5-38.3-8.1c0,0-0.2,0.9-0.5,1.8
	c-6.7,1.2-9.6,4.7-23.3,10.8c-7.1,3.2-43.6,3.2-50.7,0C80.9,44.5,77.9,41,71.3,39.9C71,38.9,70.8,38,70.8,38
	c-7.8-0.5-33.9,3.9-38.3,8.1c0,1.6,0.7,4.4,0.7,4.4c-33.3,49-42.3,142.1-23.1,150.1c26.4,11,52.3-44.3,78.6-44.3
	c10.2,0,52.1,0,62.3,0c26.3,0,52.2,55.3,78.6,44.3C248.9,192.6,239.9,99.4,206.6,50.5z M118.6,96.8c-8.3,0-15.1-6.8-15.1-15.1
	c0-8.3,6.8-15.1,15.1-15.1c8.3,0,15.1,6.8,15.1,15.1C133.7,90.1,127,96.8,118.6,96.8z"/>
</svg>
