<?xml version="1.0" encoding="utf-8"?>
<!-- Generator: Adobe Illustrator 18.0.0, SVG Export Plug-In . SVG Version: 6.00 Build 0)  -->
<!DOCTYPE svg PUBLIC "-//W3C//DTD SVG 1.1//EN" "http://www.w3.org/Graphics/SVG/1.1/DTD/svg11.dtd">
<svg version="1.1" id="Layer_1" xmlns="http://www.w3.org/2000/svg" xmlns:xlink="http://www.w3.org/1999/xlink" x="0px" y="0px"
	 viewBox="0 0 86.3 86.2" enable-background="new 0 0 86.3 86.2" xml:space="preserve">
<path fill="#F15B5C" d="M43.1,0C19.3,0,0,19.3,0,43.1s19.3,43.1,43.1,43.1s43.1-19.3,43.1-43.1S67,0,43.1,0z M48.7,58.1
	c0,1.6-0.6,2.9-1.6,4c-1.2,1-2.4,1.6-4,1.6c-1.4,0-2.7-0.6-3.7-1.6c-1.2-1-1.6-2.4-1.6-4V41.8c0-1.6,0.6-2.9,1.6-4
	c1.2-1,2.3-1.6,3.7-1.6c1.6,0,2.9,0.6,4,1.6c1.2,1,1.6,2.4,1.6,4V58.1z M47,32.1c-1,1-2.4,1.6-4,1.6c-1.4,0-2.7-0.6-3.7-1.6
	c-1.2-1.2-1.6-2.4-1.6-3.9c0-1.4,0.6-2.7,1.6-3.9c1.2-1.2,2.3-1.6,3.7-1.6c1.6,0,2.9,0.6,4,1.6c1.2,1.2,1.6,2.4,1.6,3.9
	C48.7,29.6,48.2,30.9,47,32.1z"/>
</svg>
