<?xml version="1.0" encoding="utf-8"?>
<!-- Generator: Adobe Illustrator 18.0.0, SVG Export Plug-In . SVG Version: 6.00 Build 0)  -->
<!DOCTYPE svg PUBLIC "-//W3C//DTD SVG 1.1//EN" "http://www.w3.org/Graphics/SVG/1.1/DTD/svg11.dtd">
<svg version="1.1" id="Layer_1" xmlns="http://www.w3.org/2000/svg" xmlns:xlink="http://www.w3.org/1999/xlink" x="0px" y="0px"
	 viewBox="0 0 26.5 26.5" enable-background="new 0 0 26.5 26.5" xml:space="preserve">
<path fill="#52B848" d="M22.7,3.9L22.7,3.9L3.9,22.6l0,0c1.1,1.1,2.4,2,3.8,2.7L25.3,7.7C24.7,6.3,23.8,5,22.7,3.9z"/>
<path fill="#414FA2" d="M25.3,7.6L7.6,25.3c1.7,0.8,3.4,1.2,5.2,1.2l13.7-13.7C26.5,11,26,9.3,25.3,7.6z"/>
<path fill="#8152A1" d="M26.5,12.8L12.8,26.5c3.6,0.2,7.2-1.2,9.9-3.9S26.7,16.3,26.5,12.8z"/>
<path fill="#EFE938" d="M18.7,1.1L1.2,18.7c0.6,1.4,1.5,2.8,2.7,3.9L22.6,3.8C21.5,2.6,20.1,1.8,18.7,1.1z"/>
<path fill="#EF4443" d="M3.9,3.8C1.2,6.5,0,10,0,13.5L13.6,0C10.1-0.1,6.6,1.2,3.9,3.8z"/>
<path fill="#F47923" d="M13.5,0L0,13.5c0,1.8,0.4,3.5,1.2,5.2L18.7,1.1C17,0.4,15.3,0,13.5,0z"/>
<circle fill="#414141" cx="13.3" cy="13.3" r="11.4"/>
</svg>
