<?xml version="1.0" encoding="utf-8"?>
<!-- Generator: Adobe Illustrator 18.0.0, SVG Export Plug-In . SVG Version: 6.00 Build 0)  -->
<!DOCTYPE svg PUBLIC "-//W3C//DTD SVG 1.1//EN" "http://www.w3.org/Graphics/SVG/1.1/DTD/svg11.dtd">
<svg version="1.1" id="Layer_1" xmlns="http://www.w3.org/2000/svg" xmlns:xlink="http://www.w3.org/1999/xlink" x="0px" y="0px"
	 viewBox="0 0 240 240" enable-background="new 0 0 240 240" xml:space="preserve">
<path fill="#F15B5C" d="M239.5,85.1c0,0-6.4-0.6-19.9-2.6c0,0-11.2-1-26.6-1.5c0,0-9.9,0.2-20.9,0c0,0-9,0.9-20.9,2.5
	c0,0-9,2.6-18.3,5.4c0,0-5.8,2.2-10.3,2.9c0,0-2.9,0.3-6.7,0c0,0-2.6,0-6.7-1.6c0,0-8.7-2.6-22.1-6.1c0,0-17.8-4.1-49-2.9
	C27.1,81.7,13.2,84.8,0,86.1V97v3.8c0,0,2.1,1.6,5.7,4.4c0,0,2,6.8,3.6,16.1c0,0,3.6,14.8,8.4,24.4c0,0,4.5,6.4,16.1,10.9
	c0,0,13.5,2.6,26.3,2.1c0,0,9.3-1.8,18.6-4.4c0,0,6.4-2.9,13.2-9c0,0,6.7-7.1,12.5-19.3c0,0,1.8-4.2,3.9-10.1c0,0,1.4-4.2,2.8-8.1
	c0,0,1.5-2.1,3.5-3.7c0,0,2.7-0.7,5.7-0.6c0,0,2.8,0.6,5.3,1.5c0,0,2.2,4.2,6.4,13.2c0,0,3.5,9.9,8,18.3c0,0,3.8,6.1,11.5,12.8
	c0,0,8.7,5.1,20.2,7.4c0,0,13.2,2.6,23.4,1.6c0,0,4.8-0.3,9.3-1.6c0,0,4.2-1,8.3-2.6c0,0,4.5-2.6,6.7-5.8c0,0,4.2-5.8,7.4-15.4
	c0,0,3.2-12.2,4.8-22.8c0,0,1.3-2.6,2.6-5.2c0,0,2.6-2.8,5.1-6.4C239.5,99,240.7,91.2,239.5,85.1z M100,112.1
	c-2.2,9.1-4.9,17-4.9,17c-2.8,5.8-6.3,10.7-6.3,10.7c-3.5,4.5-7.7,7.7-7.7,7.7c-7.3,3.8-15.6,5.8-15.6,5.8c-7.8,1.1-14,1.1-14,1.1
	c-8.9-0.1-15.9-1.6-15.9-1.6c-6.4-2.4-9.4-5.5-9.4-5.5c-4.5-7.1-6.1-12.4-6.1-12.4c-2-6.6-3.1-11.7-3.1-11.7
	c-0.6-5.1-0.7-8.7-0.7-8.7c-0.2-4.2,0-8.2,0-8.2c0.6-3.5,1.6-6.9,1.6-6.9c1.7-3,3.9-5.2,3.9-5.2c3.7-2.2,8.2-3.6,8.2-3.6
	c5.8-1.2,10.1-1.8,10.1-1.8c6.9-0.5,11.9-0.5,11.9-0.5c2.8,0,4.9,0,4.9,0c12,0,20,1.1,20,1.1c10.3,2,14.8,3.6,14.8,3.6
	c4.6,2.6,6.6,5,6.6,5c1,2.6,1.8,5.9,1.8,5.9C100.1,108.7,100,112.1,100,112.1z M223.2,114.5c0,0-0.1,3.6-0.7,8.7
	c0,0-1.1,5.1-3.1,11.7c0,0-1.6,5.3-6.1,12.4c0,0-3,3.1-9.4,5.5c0,0-7,1.4-15.9,1.6c0,0-6.1,0-14-1.1c0,0-8.3-1.9-15.6-5.8
	c0,0-4.2-3.3-7.7-7.7c0,0-3.5-4.9-6.3-10.7c0,0-2.8-7.8-4.9-17c0,0-0.1-3.5,0-8.3c0,0,0.8-3.2,1.8-5.9c0,0,2-2.4,6.6-5.1
	c0,0,4.5-1.4,14.8-3.4c0,0,7.9-1.1,20-1.1c0,0,2.2,0,4.9,0c0,0,5.1,0,11.9,0.5c0,0,4.3,0.8,10.1,2c0,0,4.5,1.4,8.2,3.5
	c0,0,2.2,2.1,3.8,5.1c0,0,1,3.3,1.6,6.8C223.2,106.3,223.4,110.3,223.2,114.5z"/>
</svg>
