<?xml version="1.0" encoding="utf-8"?>
<!-- Generator: Adobe Illustrator 18.0.0, SVG Export Plug-In . SVG Version: 6.00 Build 0)  -->
<!DOCTYPE svg PUBLIC "-//W3C//DTD SVG 1.1//EN" "http://www.w3.org/Graphics/SVG/1.1/DTD/svg11.dtd">
<svg version="1.1" id="Capa_1" xmlns="http://www.w3.org/2000/svg" xmlns:xlink="http://www.w3.org/1999/xlink" x="0px" y="0px"
	 viewBox="0 0 100 100" enable-background="new 0 0 100 100" xml:space="preserve">
<path d="M38,65.6c-3.1,0-6-0.3-8.8-0.9L16.3,77.5V59.3C9.4,54.6,5,47.8,5,40.1c0-14,14.8-25.4,33-25.4s33,11.4,33,25.4
	S56.2,65.6,38,65.6z M69.2,23.2c4.1,4.8,6.5,10.7,6.5,17c0,14.7-13.2,26.9-30.5,29.7c4.9,2.3,10.7,3.6,16.8,3.6c3.1,0,6-0.3,8.8-0.9
	l12.8,12.8V67.1C90.6,62.4,95,55.6,95,48C95,35.8,84,25.7,69.2,23.2z"/>
</svg>
