<?xml version="1.0" encoding="utf-8"?>
<!-- Generator: Adobe Illustrator 18.0.0, SVG Export Plug-In . SVG Version: 6.00 Build 0)  -->
<!DOCTYPE svg PUBLIC "-//W3C//DTD SVG 1.1//EN" "http://www.w3.org/Graphics/SVG/1.1/DTD/svg11.dtd">
<svg version="1.1" id="Layer_1" xmlns="http://www.w3.org/2000/svg" xmlns:xlink="http://www.w3.org/1999/xlink" x="0px" y="0px"
	 viewBox="0 0 240 240" enable-background="new 0 0 240 240" xml:space="preserve">
<circle fill="#F15B5C" cx="120" cy="120" r="120"/>
<path fill="#FFFFFF" d="M169.3,158.9l-31.2-31.2c4.1-6.1,6.3-13.2,6.3-20.6c0-9.9-3.9-19.3-11-26.4c-7.1-7.1-16.4-10.8-26.4-10.8
	s-19.3,3.9-26.2,11c-7,6.9-10.8,16.2-10.8,26.1s3.9,19.3,11,26.4c7.1,7.1,16.2,11,26.4,11c7.5,0,14.7-2.2,20.8-6.4l31.3,31.3
	c1.1,1.1,3,0.8,4.3-0.5l5.3-5.3C170.1,162,170.4,160,169.3,158.9z M107.1,134.2C92.2,134.2,80,122,80,107.1S92.2,80,107.1,80
	s27.1,12.2,27.1,27.1S122.1,134.2,107.1,134.2z"/>
</svg>
