<?xml version="1.0" encoding="utf-8"?>
<!-- Generator: Adobe Illustrator 18.0.0, SVG Export Plug-In . SVG Version: 6.00 Build 0)  -->
<!DOCTYPE svg PUBLIC "-//W3C//DTD SVG 1.1//EN" "http://www.w3.org/Graphics/SVG/1.1/DTD/svg11.dtd">
<svg version="1.1" id="Capa_1" xmlns="http://www.w3.org/2000/svg" xmlns:xlink="http://www.w3.org/1999/xlink" x="0px" y="0px"
	 viewBox="0 0 100 100" enable-background="new 0 0 100 100" xml:space="preserve">
<path fill="#1DCFAC" d="M36.7,67.3c-3.5,0-6.6-0.4-9.7-1L12.5,80.5V60.3C4.9,55,0,47.5,0,39c0-15.6,16.5-28.3,36.7-28.3
	s36.7,12.6,36.7,28.2S56.9,67.3,36.7,67.3z M71.4,20.2c4.6,5.3,7.2,11.9,7.2,18.9c0,16.4-14.7,29.8-33.9,33c5.4,2.5,11.9,4,18.7,4
	c3.5,0,6.6-0.4,9.7-1l14.2,14.2V69c7.8-5.2,12.6-12.8,12.6-21.2C100,34.2,87.7,23,71.4,20.2z"/>
</svg>
