<?xml version="1.0" encoding="utf-8"?>
<!-- Generator: Adobe Illustrator 18.0.0, SVG Export Plug-In . SVG Version: 6.00 Build 0)  -->
<!DOCTYPE svg PUBLIC "-//W3C//DTD SVG 1.1//EN" "http://www.w3.org/Graphics/SVG/1.1/DTD/svg11.dtd">
<svg version="1.1" id="Layer_1" xmlns="http://www.w3.org/2000/svg" xmlns:xlink="http://www.w3.org/1999/xlink" x="0px" y="0px"
	 viewBox="0 0 100 100" enable-background="new 0 0 100 100" xml:space="preserve">
<g id="Your_Icon">
	<path fill="#1DCFAC" d="M92.9,12.5H7.1c-4,0-7.1,3.2-7.1,7.1s3.2,7.1,7.1,7.1h85.7c4,0,7.1-3.2,7.1-7.1S96.8,12.5,92.9,12.5z"/>
	<path fill="#1DCFAC" d="M92.9,42.2H7.1c-4,0-7.1,3.2-7.1,7.1s3.2,7.1,7.1,7.1h85.7c4,0,7.1-3.2,7.1-7.1S96.8,42.2,92.9,42.2z"/>
	<path fill="#1DCFAC" d="M100,79c0-4-3.2-7.1-7.1-7.1H7.1c-4,0-7.1,3.2-7.1,7.1c0,4,3.2,7.1,7.1,7.1h85.7C96.8,86.2,100,83,100,79z"
		/>
</g>
</svg>
