<?xml version="1.0" encoding="utf-8"?>
<!-- Generator: Adobe Illustrator 18.0.0, SVG Export Plug-In . SVG Version: 6.00 Build 0)  -->
<!DOCTYPE svg PUBLIC "-//W3C//DTD SVG 1.1//EN" "http://www.w3.org/Graphics/SVG/1.1/DTD/svg11.dtd">
<svg version="1.1" id="Layer_1" xmlns="http://www.w3.org/2000/svg" xmlns:xlink="http://www.w3.org/1999/xlink" x="0px" y="0px"
	 viewBox="0 0 100 100" enable-background="new 0 0 100 100" xml:space="preserve">
<path fill="#E74C3C" d="M93.2,0.1C59.7-1,32.2,11.3,32.2,11.3l0,62.7c-3.4-1.4-7.6-1.7-11.8-0.7c-9.1,2.2-15,9.8-13.3,17
	s10.5,11.2,19.6,9c8.6-2.1,14.3-9,13.5-15.8l0,0V36.8c0,0,19.4-6.8,44.6-8.5v34.8l0,0c-3.4-1.3-7.4-1.6-11.6-0.6
	c-9.1,2.2-15,9.8-13.3,17c1.7,7.2,10.5,11.2,19.6,9c7.9-1.9,13.5-8,13.6-14.3l0,0C93.2,74.3,93.2,12.8,93.2,0.1z"/>
</svg>
