<?xml version="1.0" encoding="utf-8"?>
<!-- Generator: Adobe Illustrator 18.0.0, SVG Export Plug-In . SVG Version: 6.00 Build 0)  -->
<!DOCTYPE svg PUBLIC "-//W3C//DTD SVG 1.1//EN" "http://www.w3.org/Graphics/SVG/1.1/DTD/svg11.dtd">
<svg version="1.1" id="Layer_1" xmlns="http://www.w3.org/2000/svg" xmlns:xlink="http://www.w3.org/1999/xlink" x="0px" y="0px"
	 viewBox="0 0 97.4 97.4" enable-background="new 0 0 97.4 97.4" xml:space="preserve">
<path fill="#FFFFFF" d="M32.6,10.8v2.8h0v59.5c-3.1-1.4-6.9-2-10.9-1.4c-9.2,1.3-15.8,8-14.8,15.1c1,7,9.2,11.7,18.4,10.4
	c8.6-1.2,15-7.3,14.9-13.9h0V34.6c16.6-4.9,33.5-7,42.9-7.8v36.5c-3.1-1.4-6.9-2-10.9-1.4c-9.2,1.3-15.8,8-14.8,15.1
	s9.2,11.7,18.4,10.4c8.6-1.2,15-7.3,14.9-13.9h0V26.3V3.8V0.2C52.9-1.7,32.6,10.8,32.6,10.8z"/>
</svg>
