<?xml version="1.0" encoding="utf-8"?>
<!-- Generator: Adobe Illustrator 18.0.0, SVG Export Plug-In . SVG Version: 6.00 Build 0)  -->
<!DOCTYPE svg PUBLIC "-//W3C//DTD SVG 1.1//EN" "http://www.w3.org/Graphics/SVG/1.1/DTD/svg11.dtd">
<svg version="1.1" id="Calque_1" xmlns="http://www.w3.org/2000/svg" xmlns:xlink="http://www.w3.org/1999/xlink" x="0px" y="0px"
	 viewBox="19 195.3 581.4 388" enable-background="new 19 195.3 581.4 388" xml:space="preserve">
<path fill="#FF5959" d="M406.4,389.3c0,107.1-86.9,194-194,194S19,496.4,19,389.3s86.9-194,194-194S406.4,282.2,406.4,389.3z
	 M214.2,249.7c-77.1,0-138.9,62.4-138.9,138.9s61.8,139.5,138.9,139.5s138.9-62.4,138.9-138.9S290.7,249.7,214.2,249.7z"/>
<path fill="#FF5959" d="M600.4,389.3c0,107.1-86.9,194-194,194S213,496.4,213,389.3s86.9-194,194-194S600.4,282.2,600.4,389.3z
	 M407.6,249.7c-77.1,0-138.9,62.4-138.9,138.9s62.4,138.9,138.9,138.9c77.1,0,138.9-62.4,138.9-138.9S484.7,249.7,407.6,249.7z"/>
</svg>
