<?xml version="1.0" encoding="utf-8"?>
<!-- Generator: Adobe Illustrator 18.0.0, SVG Export Plug-In . SVG Version: 6.00 Build 0)  -->
<!DOCTYPE svg PUBLIC "-//W3C//DTD SVG 1.1//EN" "http://www.w3.org/Graphics/SVG/1.1/DTD/svg11.dtd">
<svg version="1.1" id="Layer_1" xmlns="http://www.w3.org/2000/svg" xmlns:xlink="http://www.w3.org/1999/xlink" x="0px" y="0px"
	 viewBox="0 0 240 240" enable-background="new 0 0 240 240" xml:space="preserve">
<g>
	<path fill="#1DCFAC" d="M184.3,188c0,5.8-4.8,10.3-10.6,10.3H33.6c-5.8,0-10.6-4.6-10.6-10.3V50.5c0-5.8,4.8-10.3,10.6-10.3h132.2
		l28.6-22.3c-0.2,0-0.5-0.2-0.7-0.2h-180C6.2,17.6,0,23.4,0,30.8v176.6c0,7.4,6.2,13.4,13.7,13.4h180c7.4,0,13.7-6,13.7-13.4v-99.1
		l-23,18C184.3,126.4,184.3,188,184.3,188z"/>
	<polygon fill="#1DCFAC" points="216.2,20.5 205.9,30.1 229.7,54.4 240,44.8 	"/>
	<polygon fill="#1DCFAC" points="98.4,130 121.9,154 219.8,62.3 196.3,38.3 	"/>
	<polygon fill="#1DCFAC" points="77,172.2 101,172.9 101.5,172.9 109.9,164.8 86.4,140.8 86.4,140.8 77.8,148.7 	"/>
</g>
</svg>
