<?xml version="1.0" encoding="utf-8"?>
<!-- Generator: Adobe Illustrator 17.1.0, SVG Export Plug-In . SVG Version: 6.00 Build 0)  -->
<!DOCTYPE svg PUBLIC "-//W3C//DTD SVG 1.1//EN" "http://www.w3.org/Graphics/SVG/1.1/DTD/svg11.dtd">
<svg version="1.1" id="Layer_1" xmlns="http://www.w3.org/2000/svg" xmlns:xlink="http://www.w3.org/1999/xlink" x="0px" y="0px"
	 viewBox="0 0 36 44" enable-background="new 0 0 36 44" xml:space="preserve">
<path fill="#FFFFFF" d="M36,0.6l-1.3,0.5c0,0-3.6,1.2-9.3,1.2c-2.9,0-5.7-0.6-8.3-1.2C14.3,0.6,11.5,0,8.5,0C2.6,0,0.6,1.3,0.4,1.4
	L0,1.7V2v22.5V44h2V24.9C2.8,24.6,4.7,24,8.5,24c2.7,0,5.3,0.5,8,1.1c2.8,0.6,5.6,1.2,8.8,1.2c6.1,0,9.8-1.3,10-1.4l0.7-0.2L36,0.6z
	"/>
</svg>
