<?xml version="1.0" encoding="utf-8"?>
<!-- Generator: Adobe Illustrator 18.0.0, SVG Export Plug-In . SVG Version: 6.00 Build 0)  -->
<!DOCTYPE svg PUBLIC "-//W3C//DTD SVG 1.1//EN" "http://www.w3.org/Graphics/SVG/1.1/DTD/svg11.dtd">
<svg version="1.1" id="Layer_1" xmlns="http://www.w3.org/2000/svg" xmlns:xlink="http://www.w3.org/1999/xlink" x="0px" y="0px"
	 viewBox="0 0 82 82" enable-background="new 0 0 82 82" xml:space="preserve">
<path fill="#52B848" d="M70.1,11.9L70.1,11.9L11.9,70l0.1,0.1c3.5,3.5,7.5,6.1,11.6,8.2l54.6-54.6C76.2,19.4,73.6,15.5,70.1,11.9z"
	/>
<path fill="#414FA2" d="M78.2,23.5L23.6,78.1c5.1,2.4,10.5,3.7,16,3.8l42.4-42.4C81.8,34,80.5,28.6,78.2,23.5z"/>
<path fill="#8152A1" d="M81.9,39.5L39.5,81.9c11,0.5,22.2-3.6,30.6-12S82.4,50.5,81.9,39.5z"/>
<path fill="#EFE938" d="M57.9,3.6L3.6,57.9c2,4.4,4.7,8.5,8.3,12.2L70,12C66.3,8.3,62.2,5.6,57.9,3.6z"/>
<path fill="#EF4443" d="M11.9,11.9C3.6,20.2-0.3,31-0.1,41.8l42-41.7C31.1-0.3,20.2,3.7,11.9,11.9z"/>
<path fill="#F47923" d="M41.9,0.1L0.1,41.9c0.1,5.5,1.3,10.9,3.6,16L57.9,3.6C52.7,1.3,47.3,0.2,41.9,0.1z"/>
</svg>
