<?xml version="1.0" encoding="utf-8"?>
<!-- Generator: Adobe Illustrator 18.0.0, SVG Export Plug-In . SVG Version: 6.00 Build 0)  -->
<!DOCTYPE svg PUBLIC "-//W3C//DTD SVG 1.1//EN" "http://www.w3.org/Graphics/SVG/1.1/DTD/svg11.dtd">
<svg version="1.1" id="Your_Icon" xmlns="http://www.w3.org/2000/svg" xmlns:xlink="http://www.w3.org/1999/xlink" x="0px" y="0px"
	 viewBox="0 0 83.1 83.1" enable-background="new 0 0 83.1 83.1" xml:space="preserve">
<path fill="#D3D3D3" d="M82.5,74.1L56.6,48.2c3.4-5.1,5.2-11,5.2-17.1c0-8.2-3.2-16-9.1-21.9S39.1,0.2,30.8,0.2s-16,3.2-21.8,9.1
	C3.2,15,0,22.8,0,31s3.2,16,9.1,21.9s13.5,9.1,21.9,9.1c6.2,0,12.2-1.8,17.3-5.3l26,26c0.9,0.9,2.5,0.7,3.6-0.4l4.4-4.4
	C83.2,76.6,83.4,75,82.5,74.1z M30.8,53.5C18.4,53.5,8.3,43.4,8.3,31S18.4,8.5,30.8,8.5S53.3,18.6,53.3,31S43.3,53.5,30.8,53.5z"/>
</svg>
