<?xml version="1.0" encoding="utf-8"?>
<!-- Generator: Adobe Illustrator 17.1.0, SVG Export Plug-In . SVG Version: 6.00 Build 0)  -->
<!DOCTYPE svg PUBLIC "-//W3C//DTD SVG 1.1//EN" "http://www.w3.org/Graphics/SVG/1.1/DTD/svg11.dtd">
<svg version="1.1" id="Layer_1" xmlns="http://www.w3.org/2000/svg" xmlns:xlink="http://www.w3.org/1999/xlink" x="0px" y="0px"
	 viewBox="0 0 50 50" enable-background="new 0 0 50 50" xml:space="preserve">
<path fill="#FFFFFF" d="M50,30V20h-5.6c-0.4-1.9-1.2-3.6-2.1-5.3l3.9-3.9l-7.1-7.1l-3.8,3.8c-1.6-1-3.4-1.8-5.3-2.3V0H20v5.3
	c-1.9,0.5-3.7,1.3-5.3,2.3l-3.8-3.8l-7.1,7.1l3.9,3.9C6.7,16.4,6,18.1,5.6,20H0v10h5.7c0.5,1.8,1.2,3.5,2.2,5l-4.1,4.1l7.1,7.1
	l4.2-4.2c1.5,0.9,3.2,1.6,4.9,2v6h10v-6c1.8-0.5,3.4-1.1,4.9-2l4.2,4.2l7.1-7.1L42.1,35c0.9-1.5,1.7-3.2,2.2-5H50z M25,32
	c-3.9,0-7-3.1-7-7s3.1-7,7-7s7,3.1,7,7S28.9,32,25,32z"/>
</svg>
