<?xml version="1.0" encoding="utf-8"?>
<!-- Generator: Adobe Illustrator 18.0.0, SVG Export Plug-In . SVG Version: 6.00 Build 0)  -->
<!DOCTYPE svg PUBLIC "-//W3C//DTD SVG 1.1//EN" "http://www.w3.org/Graphics/SVG/1.1/DTD/svg11.dtd">
<svg version="1.1" id="Layer_1" xmlns="http://www.w3.org/2000/svg" xmlns:xlink="http://www.w3.org/1999/xlink" x="0px" y="0px"
	 viewBox="0 0 240 240" enable-background="new 0 0 240 240" xml:space="preserve">
<g id="Your_Icon">
	<path fill="#FF5959" d="M165.9,121.4V23.2c6.4,0,11.5-5.2,11.5-11.5c0-6.4-5.2-11.5-11.5-11.5H106c-6.4,0-11.5,5.2-11.5,11.5
		c0,6.4,5.2,11.5,11.5,11.5v98.2c-6.1,3.3-11.6,7.7-16.3,12.7l-11.4-11.4l-4.9-19l-0.1,0.1c-0.3-0.7-0.7-1.4-1.3-2
		c-2.3-2.3-5.9-2.3-8.2,0l-21.2,21.2c-2.2,2.3-2.2,5.9,0,8.1c0.6,0.6,1.3,1,2,1.3l0,0l0,0c0.4,0.2,0.8,0.3,1.2,0.3l17.7,4.6
		l14.4,14.4c-3.3,7.7-5.2,16.1-5.2,25c0,34.8,28.2,63,63,63s63-28.2,63-63C198.9,152.9,185.6,132.1,165.9,121.4z"/>
</g>
</svg>
