<?xml version="1.0" encoding="utf-8"?>
<!-- Generator: Adobe Illustrator 18.0.0, SVG Export Plug-In . SVG Version: 6.00 Build 0)  -->
<!DOCTYPE svg PUBLIC "-//W3C//DTD SVG 1.1//EN" "http://www.w3.org/Graphics/SVG/1.1/DTD/svg11.dtd">
<svg version="1.1"
	 id="svg2" inkscape:version="0.48.2 r9819" sodipodi:docname="shovel.svg" xmlns:dc="http://purl.org/dc/elements/1.1/" xmlns:cc="http://creativecommons.org/ns#" xmlns:rdf="http://www.w3.org/1999/02/22-rdf-syntax-ns#" xmlns:svg="http://www.w3.org/2000/svg" xmlns:sodipodi="http://sodipodi.sourceforge.net/DTD/sodipodi-0.dtd" xmlns:inkscape="http://www.inkscape.org/namespaces/inkscape"
	 xmlns="http://www.w3.org/2000/svg" xmlns:xlink="http://www.w3.org/1999/xlink" x="0px" y="0px" viewBox="0 0 240 240"
	 enable-background="new 0 0 240 240" xml:space="preserve">
<sodipodi:namedview  inkscape:window-y="-8" inkscape:current-layer="layer1" inkscape:window-x="-8" inkscape:pageshadow="2" inkscape:snap-grids="true" inkscape:pageopacity="0" inkscape:window-height="706" inkscape:window-maximized="1" inkscape:window-width="1366" objecttolerance="10" borderopacity="1" bordercolor="#666666" id="namedview6" showgrid="true" inkscape:cy="20.180971" inkscape:zoom="1.9040323" pagecolor="#ffffff" gridtolerance="10" guidetolerance="10" inkscape:cx="42.46745">
	<inkscape:grid  type="xygrid" id="grid16635"></inkscape:grid>
</sodipodi:namedview>
<g id="layer2" inkscape:groupmode="layer" inkscape:label="Layer" display="none">
	<path id="path4703" inkscape:connector-curvature="0" display="inline" fill="none" stroke="#000000" d="M41.5,94.8l5-2.2L47,97
		l4.3-2.4"/>
</g>
<g id="layer1" inkscape:groupmode="layer" inkscape:label="draw">
	<path id="rect16637" inkscape:connector-curvature="0" fill="#414141" d="M211.7,1.9l-3.1,2.9c0,0-3.6,3.4-5.5,8.4
		c-1.4,3.6-1.9,8.6,0.2,13.9L70.1,160.8l-22.6-22.6c-1.9-1.9-6.2-2.6-7,0c0,0-60.5,62.2-30.7,91.7c29.8,29.5,92.6-30,92.6-30
		s1.9-5,0-7l-22.8-22.6L212.6,37c5,2.6,10.6,2.2,14.2,0.7c5.3-2.2,8.6-6,8.6-6l2.9-3.1l-3.1-3.1L214.8,4.8L211.7,1.9z M212.2,15.1
		l13,13c-0.7,0.5-0.7,0.7-1.7,1c-2.9,1.2-5.5,1.9-9.6-2.6c-4.3-4.6-3.6-7.4-2.6-10.3C211.7,15.6,211.7,15.8,212.2,15.1z"/>
</g>
</svg>
