<?xml version="1.0" encoding="utf-8"?>
<!-- Generator: Adobe Illustrator 18.0.0, SVG Export Plug-In . SVG Version: 6.00 Build 0)  -->
<!DOCTYPE svg PUBLIC "-//W3C//DTD SVG 1.1//EN" "http://www.w3.org/Graphics/SVG/1.1/DTD/svg11.dtd">
<svg version="1.1"
	 id="svg2" inkscape:version="0.48.2 r9819" sodipodi:docname="shovel.svg" xmlns:sodipodi="http://sodipodi.sourceforge.net/DTD/sodipodi-0.dtd" xmlns:svg="http://www.w3.org/2000/svg" xmlns:rdf="http://www.w3.org/1999/02/22-rdf-syntax-ns#" xmlns:cc="http://creativecommons.org/ns#" xmlns:dc="http://purl.org/dc/elements/1.1/" xmlns:inkscape="http://www.inkscape.org/namespaces/inkscape"
	 xmlns="http://www.w3.org/2000/svg" xmlns:xlink="http://www.w3.org/1999/xlink" x="0px" y="0px" viewBox="0 0 100 100"
	 enable-background="new 0 0 100 100" xml:space="preserve">
<sodipodi:namedview  inkscape:window-x="-8" inkscape:window-y="-8" inkscape:current-layer="layer1" inkscape:pageshadow="2" inkscape:pageopacity="0" inkscape:window-height="706" inkscape:snap-grids="true" inkscape:window-width="1366" inkscape:window-maximized="1" bordercolor="#666666" id="namedview6" objecttolerance="10" borderopacity="1" inkscape:cy="20.180971" inkscape:cx="42.46745" guidetolerance="10" gridtolerance="10" pagecolor="#ffffff" inkscape:zoom="1.9040323" showgrid="true">
	<inkscape:grid  type="xygrid" id="grid16635"></inkscape:grid>
</sodipodi:namedview>
<g id="layer2" inkscape:groupmode="layer" inkscape:label="Layer" display="none">
	<path id="path4703" inkscape:connector-curvature="0" display="inline" fill="none" stroke="#000000" d="M17.3,39.5l2.1-0.9
		l0.2,1.8l1.8-1"/>
</g>
<g id="layer1" inkscape:groupmode="layer" inkscape:label="draw">
	<path id="rect16637" inkscape:connector-curvature="0" fill="#FFFFFF" d="M88.2,0.8L86.9,2c0,0-1.5,1.4-2.3,3.5
		C84,7,83.8,9.1,84.7,11.3L29.2,67l-9.4-9.4c-0.8-0.8-2.6-1.1-2.9,0c0,0-25.2,25.9-12.8,38.2s38.6-12.5,38.6-12.5s0.8-2.1,0-2.9
		L33.2,71l55.4-55.6c2.1,1.1,4.4,0.9,5.9,0.3c2.2-0.9,3.6-2.5,3.6-2.5l1.2-1.3L98,10.6L89.5,2C89.5,2,88.2,0.8,88.2,0.8z M88.4,6.3
		l5.4,5.4c-0.3,0.2-0.3,0.3-0.7,0.4c-1.2,0.5-2.3,0.8-4-1.1c-1.8-1.9-1.5-3.1-1.1-4.3C88.2,6.5,88.2,6.6,88.4,6.3z"/>
</g>
</svg>
