<?xml version="1.0" encoding="utf-8"?>
<!-- Generator: Adobe Illustrator 18.0.0, SVG Export Plug-In . SVG Version: 6.00 Build 0)  -->
<!DOCTYPE svg PUBLIC "-//W3C//DTD SVG 1.1//EN" "http://www.w3.org/Graphics/SVG/1.1/DTD/svg11.dtd">
<svg version="1.1" id="Layer_1" xmlns="http://www.w3.org/2000/svg" xmlns:xlink="http://www.w3.org/1999/xlink" x="0px" y="0px"
	 viewBox="0 0 100 100" enable-background="new 0 0 100 100" xml:space="preserve">
<path fill="#3498DB" d="M98.2,62.9c-1.8,7-5,13.3-10.6,17.8c-13.2,10.5-14.9,10.6-28,0C46.1,69.9,44.8,47.2,49.5,29.4
	c8.1,0.5,16.2,1.4,24.2,1.4c8,0,16-1,24.1-1.5C100.4,38.6,100.6,53.8,98.2,62.9z M74,75.8c7.3-0.3,11.7-4.3,11.5-10.1
	c-8.3,0-16.6,0-25,0C60.2,71.4,65.8,76.1,74,75.8z M84,42.2c-3.1,0.5-5.3,3.6-5.4,7.5c4,1.5,8.1,0.8,12.7-2.5
	C89.7,44.1,87.9,41.6,84,42.2z M67.5,51.1c0.4-4.6-1.7-7.9-4.8-8.8c-3.1-0.9-5.4,0.7-8,6.1C59.3,49.3,63.4,50.2,67.5,51.1z"/>
<path fill="#3498DB" d="M43.2,11.8c2.3,3.2,4.5,6.2,7.2,9.9c-3.2-0.5-5.4-0.9-7.9-1.2c-0.3,1.4-0.6,2.7-0.8,3.9
	c-0.4,2.6-0.8,4.7-4,5.7c-3,1-4,4.8-3,8.4c1.5-0.2,2.9-0.3,4.8-0.5c-0.1,1.8-0.3,3.4-0.2,5c0.4,5.3,0.3,10.2-5.7,12.7
	c-1,0.4-1.8,1.9-2.4,3c-1.7,3-1.9,6-0.3,9.3c3.4-1.8,6.5-3.4,9.6-4.9c1.9,4.7,3.7,9.1,5.5,13.5c-9.2,1.1-18.2-1.5-25.4-7.4
	c-10.7-8.8-15.8-21-20.4-34C15.9,29.8,30.1,22.1,43.2,11.8z M16.8,41.3c-2.2,1.8-2.4,4.8-0.1,9.2c3.6-2.4,7-4.7,10.9-7.3
	C23.5,39.6,19.4,39.2,16.8,41.3z"/>
<path fill="#FFFFFF" d="M60.5,65.6c-0.3,5.8,5.3,10.5,13.4,10.1c7.3-0.3,11.7-4.3,11.5-10.1C77.2,65.6,68.9,65.6,60.5,65.6z"/>
<path fill="#FFFFFF" d="M91.2,47.3c-1.6-3.2-3.4-5.7-7.2-5.1c-3.1,0.5-5.3,3.6-5.4,7.5C82.5,51.3,86.7,50.5,91.2,47.3z"/>
<path fill="#FFFFFF" d="M54.8,48.4c4.5,1,8.6,1.8,12.8,2.7c0.4-4.6-1.7-7.9-4.8-8.8C59.7,41.4,57.4,42.9,54.8,48.4z"/>
<path fill="#FFFFFF" d="M27.6,43.2c-4.1-3.6-8.2-4-10.8-1.9c-2.2,1.8-2.4,4.8-0.1,9.2C20.2,48.1,23.7,45.8,27.6,43.2z"/>
</svg>
