<?xml version="1.0" encoding="utf-8"?>
<!-- Generator: Adobe Illustrator 18.0.0, SVG Export Plug-In . SVG Version: 6.00 Build 0)  -->
<!DOCTYPE svg PUBLIC "-//W3C//DTD SVG 1.1//EN" "http://www.w3.org/Graphics/SVG/1.1/DTD/svg11.dtd">
<svg version="1.1" id="Layer_1" xmlns="http://www.w3.org/2000/svg" xmlns:xlink="http://www.w3.org/1999/xlink" x="0px" y="0px"
	 viewBox="0 0 26.5 26.5" enable-background="new 0 0 26.5 26.5" xml:space="preserve">
<path id="shiffle" fill="#1D7667" d="M19,18.4c-0.6-0.2-1.4-0.7-2.3-1.6c-0.8-0.7-1.5-1.7-2.3-2.7c-0.2,0.3-0.4,0.5-0.6,0.8
	c-0.5,0.7-1.1,1.4-1.6,2.1c1.9,2.3,3.9,4.6,6.8,5v2.7l7.6-4.4L19,15.9V18.4z M6.4,9.7c0.8,0.7,1.5,1.7,2.3,2.7
	c0.2-0.3,0.4-0.5,0.6-0.8c0.5-0.7,1.1-1.4,1.6-2.1c-2-2.5-4.1-4.9-7.4-5H0V8h3.5C4.2,8,5.2,8.5,6.4,9.7z M19,8.1v2.5l7.6-4.4L19,1.9
	v2.6c-1.9,0.2-3.4,1.3-4.8,2.6c-2.2,2.2-4.1,5.2-6,7.5c-1.9,2.4-3.7,3.9-4.7,3.8H0V22h3.5c2.2,0,3.9-1.3,5.3-2.7
	c2.2-2.2,4.1-5.2,6-7.5C16.4,9.8,17.9,8.4,19,8.1z"/>
</svg>
