<?xml version="1.0" encoding="utf-8"?>
<!-- Generator: Adobe Illustrator 18.0.0, SVG Export Plug-In . SVG Version: 6.00 Build 0)  -->
<!DOCTYPE svg PUBLIC "-//W3C//DTD SVG 1.1//EN" "http://www.w3.org/Graphics/SVG/1.1/DTD/svg11.dtd">
<svg version="1.1" id="Layer_1" xmlns="http://www.w3.org/2000/svg" xmlns:xlink="http://www.w3.org/1999/xlink" x="0px" y="0px"
	 viewBox="2.4 2.4 95.2 95.2" enable-background="new 2.4 2.4 95.2 95.2" xml:space="preserve">
<g id="Your_Icon">
	<path d="M50,2.4C23.7,2.4,2.4,23.7,2.4,50S23.7,97.6,50,97.6c26.3,0,47.6-21.3,47.6-47.6C97.6,23.7,76.3,2.4,50,2.4z M68.7,69.7
		H31.3c-3,0-5.6-2.5-5.6-5.6c0-3,2.5-5.6,5.6-5.6h37.4c3,0,5.6,2.5,5.6,5.6C74.3,67.2,71.7,69.7,68.7,69.7z M75.1,39.1
		c-1.6,4.8-6.3,9.7-14.9,9.7c-8.4,0-14.4-7.1-20.3-7.1c-2.7,0-3.6,1.5-4.5,3c-0.7,1.4-2.4,3.1-5.1,3.1c-3.1,0-5.7-2.5-5.7-5.7
		c0-0.8,0.1-1.5,0.4-2.2c1.6-4.8,6.3-9.7,14.9-9.7c8.4,0,14.9,7,20.3,7c2.7,0,3.6-1.3,4.5-2.9c0.7-1.5,2.4-3.1,5.1-3.1
		c3.2,0,5.7,2.5,5.7,5.7C75.4,37.8,75.3,38.4,75.1,39.1z"/>
</g>
</svg>
