<?xml version="1.0" encoding="utf-8"?>
<!-- Generator: Adobe Illustrator 17.1.0, SVG Export Plug-In . SVG Version: 6.00 Build 0)  -->
<!DOCTYPE svg PUBLIC "-//W3C//DTD SVG 1.1//EN" "http://www.w3.org/Graphics/SVG/1.1/DTD/svg11.dtd">
<svg version="1.1" id="Layer_1" xmlns="http://www.w3.org/2000/svg" xmlns:xlink="http://www.w3.org/1999/xlink" x="0px" y="0px"
	 viewBox="0 0 48 48" enable-background="new 0 0 48 48" xml:space="preserve">
<g>
	<path fill="#FFFFFF" d="M0,0v48h48V0H0z M30,5h3v3h-3V5z M15,5h3v3h-3V5z M46,46H2V13h44V46z"/>
	<path fill="#FFFFFF" d="M16.9,35.5H19V19.8h-1.8l0,0.3c-0.4,2.4-1.5,2.5-3.8,2.6l-0.4,0v1.7h3.9V35.5z"/>
	<path fill="#FFFFFF" d="M28.9,33.9c-1.9,0-3.2-1.3-3.3-3.1l0-0.4h-2.1l0,0.4c0.1,3,2.2,5,5.3,5c3.1,0,5.6-2.4,5.6-5.4
		c0-3.3-2.2-5.5-5.4-5.5c-0.9,0-1.9,0.3-2.6,0.8L27,22h6.6v-2h-8.2l-1.6,8.5h1.8l0.1-0.2c0.6-1,1.8-1.6,3-1.6c2,0,3.4,1.5,3.4,3.5
		C32.2,32.1,31.1,33.9,28.9,33.9z"/>
</g>
</svg>
