<?xml version="1.0" encoding="utf-8"?>
<!-- Generator: Adobe Illustrator 17.1.0, SVG Export Plug-In . SVG Version: 6.00 Build 0)  -->
<!DOCTYPE svg PUBLIC "-//W3C//DTD SVG 1.1//EN" "http://www.w3.org/Graphics/SVG/1.1/DTD/svg11.dtd">
<svg version="1.1" id="Layer_1" xmlns="http://www.w3.org/2000/svg" xmlns:xlink="http://www.w3.org/1999/xlink" x="0px" y="0px"
	 viewBox="0 0 48 48" enable-background="new 0 0 48 48" xml:space="preserve">
<path fill="#FFFFFF" d="M24,0C10.7,0,0,10.7,0,24c0,13.3,10.7,24,24,24c13.3,0,24-10.7,24-24C48,10.7,37.3,0,24,0z M40.9,38
	c-2.2-0.9-7.4-2.7-10.6-3.7c-0.3-0.1-0.3-0.1-0.3-1.2c0-0.9,0.4-1.9,0.8-2.7c0.4-0.9,0.9-2.3,1.1-3.6c0.5-0.6,1.1-1.7,1.6-3.8
	c0.4-1.9,0.2-2.6,0-3.2c0-0.1-0.1-0.1-0.1-0.2c-0.1-0.4,0-2.7,0.4-4.5c0.2-1.2-0.1-3.8-1.7-5.9c-1.1-1.3-3.1-3-6.8-3.2l-2,0
	c-3.6,0.2-5.6,1.9-6.7,3.2c-1.7,2.1-1.9,4.7-1.7,5.9c0.3,1.8,0.4,4,0.4,4.5c0,0.1,0,0.1-0.1,0.2c-0.2,0.6-0.4,1.3,0,3.2
	c0.4,2.1,1.1,3.2,1.6,3.8c0.2,1.3,0.7,2.8,1.1,3.6c0.3,0.6,0.4,1.5,0.4,2.7c0,1.1,0,1.2-0.3,1.2c-3.3,1-8.6,2.9-10.6,3.7
	C4,34.3,2,29.4,2,24C2,11.9,11.9,2,24,2c12.1,0,22,9.9,22,22C46,29.3,44.1,34.2,40.9,38z"/>
</svg>
